<svg width="1200" height="900" viewBox="0 0 1200 900" fill="none" xmlns="http://www.w3.org/2000/svg">
  <rect width="1200" height="900" rx="48" fill="url(#paint0_linear_1_2)"/>
  <circle cx="230" cy="180" r="120" fill="#FFE5EC" fill-opacity="0.9"/>
  <circle cx="970" cy="720" r="170" fill="#F7D9C1" fill-opacity="0.82"/>
  <circle cx="960" cy="180" r="90" fill="#FFD0DC" fill-opacity="0.55"/>
  <path d="M602.218 316.877C568.812 257.242 486.564 244.275 435.866 289.732C385.168 335.188 376.989 419.128 415.541 474.246C447.594 520.071 554.037 602.948 589.03 629.345C596.719 635.146 607.281 635.146 614.97 629.345C649.963 602.948 756.406 520.071 788.459 474.246C827.011 419.128 818.832 335.188 768.134 289.732C717.436 244.275 635.188 257.242 601.782 316.877L602 317.266L602.218 316.877Z" fill="white" fill-opacity="0.9"/>
  <path d="M371 710C426.333 656 503.167 629 601.5 629C699.833 629 776 656 830 710" stroke="#FFF7F1" stroke-width="18" stroke-linecap="round"/>
  <text x="600" y="790" text-anchor="middle" fill="#8F5B6A" font-family="Manrope, Arial, sans-serif" font-size="44" font-weight="600">
    Здесь может быть ваше фото
  </text>
  <defs>
    <linearGradient id="paint0_linear_1_2" x1="88" y1="52" x2="1089" y2="883" gradientUnits="userSpaceOnUse">
      <stop stop-color="#FFF7F1"/>
      <stop offset="1" stop-color="#F9DFE7"/>
    </linearGradient>
  </defs>
</svg>
